<?xml version="1.0" standalone="no"?>
<!DOCTYPE svg PUBLIC "-//W3C//DTD SVG 20010904//EN"
 "http://www.w3.org/TR/2001/REC-SVG-20010904/DTD/svg10.dtd">
<svg version="1.0" xmlns="http://www.w3.org/2000/svg"
 width="512.000000pt" height="512.000000pt" viewBox="0 0 512.000000 512.000000"
 preserveAspectRatio="xMidYMid meet">
<metadata>
Created by potrace 1.14, written by Peter Selinger 2001-2017
</metadata>
<g transform="translate(0.000000,512.000000) scale(0.100000,-0.100000)"
fill="#000000" stroke="none">
<path d="M697 5104 c-285 -51 -532 -256 -638 -528 -61 -158 -59 -78 -59 -2016
0 -1536 2 -1779 15 -1855 62 -354 336 -628 690 -690 132 -23 3578 -23 3710 0
354 62 628 336 690 690 23 132 23 3578 0 3710 -62 353 -337 628 -690 690 -76
13 -314 15 -1864 14 -1481 -1 -1789 -3 -1854 -15z m37 -1301 c32 -126 127
-496 211 -823 144 -558 230 -902 271 -1082 10 -43 21 -78 26 -78 4 0 8 7 8 16
0 20 109 469 201 824 38 151 90 354 114 450 l44 174 -24 86 c-13 47 -39 144
-59 215 -19 72 -53 198 -75 280 -23 83 -41 154 -41 158 0 4 177 7 394 7 l395
0 -34 -127 c-19 -71 -50 -186 -70 -258 -19 -71 -49 -185 -67 -252 l-33 -123
37 -142 c86 -343 317 -1266 323 -1292 10 -45 20 -21 49 109 28 129 181 732
397 1568 l133 517 197 0 c180 0 198 -2 203 -17 3 -10 37 -144 76 -298 39 -154
127 -496 195 -760 102 -393 258 -1019 281 -1124 9 -40 20 -12 48 114 28 129
181 732 397 1568 l133 517 193 0 c106 0 193 -3 193 -6 0 -3 -32 -124 -71 -268
-38 -143 -86 -318 -105 -388 -19 -71 -50 -185 -69 -255 -51 -190 -190 -706
-236 -878 -22 -82 -53 -197 -69 -255 -16 -58 -56 -208 -90 -335 -34 -126 -68
-250 -75 -275 -8 -25 -24 -83 -35 -130 -12 -47 -26 -100 -31 -118 l-11 -32
-166 2 -166 3 -13 55 c-8 30 -29 112 -48 183 -83 304 -228 842 -306 1132 -22
83 -53 197 -69 255 -16 58 -57 209 -91 335 -34 127 -65 234 -69 238 -4 5 -10
-7 -14 -25 -3 -18 -22 -89 -41 -158 -32 -119 -149 -550 -236 -875 -22 -82 -53
-197 -69 -255 -16 -58 -56 -208 -90 -335 -34 -126 -68 -250 -75 -275 -8 -25
-24 -83 -35 -130 -12 -47 -26 -100 -31 -118 l-11 -32 -166 2 -166 3 -13 55
c-13 52 -47 177 -113 420 -16 58 -72 267 -125 465 -137 510 -141 523 -148 500
-8 -27 -143 -525 -202 -745 -26 -96 -59 -220 -74 -275 -15 -55 -47 -173 -71
-262 l-44 -163 -168 0 c-126 0 -170 3 -173 13 -2 6 -45 165 -95 352 -50 187
-104 387 -120 445 -16 58 -47 175 -70 260 -23 85 -54 202 -70 260 -16 58 -54
200 -85 315 -31 116 -69 257 -85 315 -16 58 -47 173 -69 255 -22 83 -74 274
-116 427 -41 152 -75 281 -75 287 0 8 61 11 198 11 l198 0 58 -227z"/>
</g>
</svg>
